<svg xmlns="http://www.w3.org/2000/svg" viewBox="0 0 100 100">
  <!-- Background circle with Durchblick blue -->
  <circle cx="50" cy="50" r="48" fill="#1375bc"/>

  <!-- Scale/balance symbol representing justice -->
  <g fill="white">
    <!-- Center pillar -->
    <rect x="47" y="35" width="6" height="35" rx="1"/>
    <!-- Base -->
    <rect x="35" y="68" width="30" height="6" rx="2"/>
    <!-- Top bar -->
    <rect x="20" y="30" width="60" height="5" rx="2"/>
    <!-- Left pan -->
    <path d="M25 38 L20 50 Q20 55 30 55 Q40 55 40 50 L35 38" fill="white" opacity="0.9"/>
    <!-- Right pan -->
    <path d="M65 38 L60 50 Q60 55 70 55 Q80 55 80 50 L75 38" fill="white" opacity="0.9"/>
    <!-- Chains -->
    <line x1="25" y1="32" x2="25" y2="38" stroke="white" stroke-width="2"/>
    <line x1="35" y1="32" x2="35" y2="38" stroke="white" stroke-width="2"/>
    <line x1="65" y1="32" x2="65" y2="38" stroke="white" stroke-width="2"/>
    <line x1="75" y1="32" x2="75" y2="38" stroke="white" stroke-width="2"/>
  </g>

  <!-- CHF indicator -->
  <circle cx="78" cy="22" r="14" fill="#bc3c31"/>
  <text x="78" y="27" font-family="Arial, sans-serif" font-size="14" font-weight="bold" fill="white" text-anchor="middle">CHF</text>
</svg>
